<?xml version="1.0" standalone="no"?>
<!DOCTYPE svg PUBLIC "-//W3C//DTD SVG 20010904//EN"
 "http://www.w3.org/TR/2001/REC-SVG-20010904/DTD/svg10.dtd">
<svg version="1.0" xmlns="http://www.w3.org/2000/svg"
 width="751.000000pt" height="751.000000pt" viewBox="0 0 751.000000 751.000000"
 preserveAspectRatio="xMidYMid meet">
<metadata>
Created by potrace 1.14, written by Peter Selinger 2001-2017
</metadata>
<g transform="translate(0.000000,751.000000) scale(0.100000,-0.100000)"
fill="#000000" stroke="none">
<path d="M3719 7062 c-1 -34 -2 -65 -3 -69 -1 -5 -6 -28 -10 -53 -31 -170
-164 -373 -339 -514 l-69 -56 -36 28 c-21 15 -39 29 -42 32 -10 12 -107 67
-160 92 -124 57 -266 88 -430 92 -249 7 -423 -44 -532 -157 -116 -120 -159
-281 -160 -600 0 -152 11 -248 43 -357 7 -25 13 -47 14 -50 63 -236 281 -640
507 -939 26 -35 48 -68 48 -72 0 -5 -14 -16 -30 -24 -30 -16 -31 -15 -78 24
-204 171 -506 273 -812 275 -113 1 -176 -8 -248 -34 -184 -69 -312 -186 -407
-375 -102 -205 -121 -360 -69 -570 41 -163 143 -350 236 -434 24 -21 23 -33
-8 -78 -54 -79 -132 -264 -150 -353 -3 -19 -8 -79 -9 -134 -6 -191 62 -344
231 -522 210 -220 478 -296 779 -219 l100 25 37 -44 c80 -93 204 -150 403
-183 75 -12 218 -6 285 12 129 35 258 118 331 213 l26 33 25 -38 c51 -77 152
-158 182 -147 12 5 10 -7 -10 -52 -70 -158 -125 -241 -261 -389 -35 -37 -63
-70 -62 -74 0 -3 76 -69 169 -146 142 -118 167 -143 159 -158 -17 -31 -122
-106 -183 -131 -115 -46 -291 -28 -390 39 -20 14 -39 25 -42 25 -10 0 -124 98
-216 185 -126 118 -186 142 -227 89 -83 -105 117 -383 371 -518 92 -49 212
-78 318 -78 47 1 96 3 110 6 98 21 133 32 196 61 85 39 176 99 223 149 l34 36
46 -37 c25 -21 59 -50 75 -65 43 -41 69 -36 141 27 34 30 66 55 70 55 4 0 17
-10 29 -23 35 -37 147 -113 206 -139 259 -115 516 -88 745 77 190 137 317 343
269 436 -23 46 -69 51 -126 16 -20 -12 -78 -62 -130 -111 -206 -196 -325 -259
-483 -257 -111 2 -226 52 -299 129 l-28 30 38 35 c22 19 82 70 134 113 52 43
111 93 130 111 19 18 38 33 43 33 19 0 1 26 -74 107 -171 187 -270 381 -325
642 -17 80 -18 86 -29 166 -3 28 -8 59 -10 70 -6 39 -17 171 -19 233 -3 73 -8
72 119 38 153 -41 137 -20 141 -187 4 -150 4 -156 24 -229 21 -79 61 -143 134
-215 144 -143 359 -207 566 -171 192 34 278 69 360 144 l63 57 82 -27 c106
-34 188 -49 289 -52 72 -2 100 0 185 18 125 27 263 109 384 230 162 161 226
309 214 503 -6 100 -10 124 -37 209 -31 99 -94 221 -167 327 l-33 47 64 76
c152 178 234 386 240 609 4 145 -49 311 -148 460 -116 174 -282 285 -466 313
-87 12 -262 6 -380 -14 -62 -10 -206 -51 -255 -73 -55 -24 -71 -26 -78 -8 -3
6 -34 51 -70 99 l-65 87 17 33 c215 405 318 656 356 863 6 33 7 342 1 390 -2
17 -6 56 -10 88 -38 315 -240 450 -659 441 -73 -2 -143 -5 -157 -9 -14 -3 -43
-8 -65 -12 -111 -16 -276 -88 -383 -167 -35 -26 -67 -46 -72 -44 -32 12 -181
173 -246 268 -80 115 -171 347 -179 452 0 3 -3 10 -7 14 -5 4 -9 -20 -9 -54z
m961 -4714 c25 -14 86 -46 135 -73 50 -26 95 -52 100 -56 6 -4 87 -47 179 -94
l168 -85 -36 -15 c-99 -41 -251 -61 -341 -43 -56 11 -142 57 -175 95 -52 59
-111 201 -104 251 1 6 2 24 3 38 1 20 4 24 14 17 6 -6 32 -21 57 -35z m-1810
-1 c0 -49 -27 -144 -57 -199 -89 -163 -284 -215 -521 -139 -56 19 -104 37
-107 41 -2 3 15 14 38 24 107 44 196 87 365 173 206 105 221 113 242 124 30
15 40 9 40 -24z"/>
</g>
</svg>
