<svg xmlns="http://www.w3.org/2000/svg" width="1417.32" height="1417.32"><path fill="#FFF" d="M707.517 896.964s11.277 93.65 56.438 105.697c45.162 12.048 68.825-45.156 82.11-36.971 13.286 8.186-26.932 66.459-78.307 56.644-51.374-9.816-60.369-56.644-60.369-56.644l.128-68.726z"/><path fill="#F3E20D" stroke="#231F20" stroke-width="4" stroke-miterlimit="10" d="M707.517 896.964s11.277 93.65 56.438 105.697c45.162 12.048 68.825-45.156 82.11-36.971 13.286 8.186-26.932 66.459-78.307 56.644-51.374-9.816-60.369-56.644-60.369-56.644l.128-68.726z"/><path fill="#FFF" d="M707.138 896.964s-11.279 93.65-56.438 105.697c-45.159 12.048-68.824-45.156-82.109-36.971-13.286 8.186 26.929 66.459 78.306 56.644 51.376-9.816 60.369-56.644 60.369-56.644l-.128-68.726z"/><path fill="#F3E20D" stroke="#231F20" stroke-width="4" stroke-miterlimit="10" d="M707.138 896.964s-11.279 93.65-56.438 105.697c-45.159 12.048-68.824-45.156-82.109-36.971-13.286 8.186 26.929 66.459 78.306 56.644 51.376-9.816 60.369-56.644 60.369-56.644l-.128-68.726z"/><path fill="#FFF" d="M593.5 431.333c74.11 0 82.379 53.63 114.867 53.993 32.116.365 38.921-53.993 113.166-53.993 62.708 0 62.708 32.116 62.708 80.573 0 41.238-60.441 136.858-60.441 136.858S1047.482 782.07 969.853 868.21c-77.63 86.131-158.866-44.528-261.196-43.326-102.328 1.193-186.125 125.627-259.526 34.307-73.403-91.315 144.725-211.204 144.725-211.204s-63.065-77.362-63.065-136.081c0-38.765 0-80.573 62.709-80.573"/><path fill="#F3E20D" stroke="#231F20" stroke-width="4" stroke-miterlimit="10" d="M593.5 431.333c74.11 0 82.379 53.63 114.867 53.993 32.116.365 38.921-53.993 113.166-53.993 62.708 0 62.708 32.116 62.708 80.573 0 41.238-60.441 136.858-60.441 136.858S1047.482 782.07 969.853 868.21c-77.63 86.131-158.866-44.528-261.196-43.326-102.328 1.193-186.125 125.627-259.526 34.307-73.403-91.315 144.725-211.204 144.725-211.204s-63.065-77.362-63.065-136.081c0-38.765 0-80.573 62.709-80.573z"/><path d="M821.55 656.06a700.4747 700.4747 0 0 1-11.058 38.418c-6.394 11.799-9.911 24.432-10.493 37.88 4.989-4.833 49.396-82.223 21.551-76.298z"/><path d="M795.245 590.813c-8.705 3.701-15.554 9.328-20.523 16.827 10.474-2.109 20.969-2.459 31.551-1.047-18.98 13.459-49.92 17.771-28.951 47.885 16.927 24.11 37.112-16.892 58.971-26.847 11.868 39.412 12.539 45.153-4.208 83.156 77.31-27.099-5.764-95.987-36.84-119.974z"/><path fill="#D559A1" stroke="#050505" stroke-width="4" stroke-miterlimit="10" d="M909.005 800.506c13.997-5.728 37.599-20.464 56.082-39.213 26.866-27.268 27.613-59.677 27.479-68.161-.263-16.507-17.608-72.856-73.01-71.835-81.873 1.504-109.403 62.329-109.403 62.329s-23.874 44.964-33.432 80.57c-9.559 35.619-21.068 57.105-16.354 101.12 1.897 17.719 15.999 37.159 44.296 44.015 12.941 3.14 33.821.263 49.61-6.41 13.097-5.526 21.13-20.289 21.13-20.289-5.318 2.248-39.101 23.718-66.045 6.42-9.489-6.096-14.544-19.834-15.672-28.353-3.766-28.404 48.051-142.949 86.923-144.585 53.153-2.247 27.84 76.434 28.396 84.392"/><path fill="none" stroke="#231F20" stroke-miterlimit="10" d="M909.005 800.506c13.997-5.728 37.599-20.464 56.082-39.213 26.866-27.268 27.613-59.677 27.479-68.161-.263-16.507-17.608-72.856-73.01-71.835-81.873 1.504-109.403 62.329-109.403 62.329s-23.874 44.964-33.432 80.57c-9.559 35.619-21.068 57.105-16.354 101.12 1.897 17.719 15.999 37.159 44.296 44.015 12.941 3.14 33.821.263 49.61-6.41 13.097-5.526 21.13-20.289 21.13-20.289-5.318 2.248-39.101 23.718-66.045 6.42-9.489-6.096-14.544-19.834-15.672-28.353-3.766-28.404 48.051-142.949 86.923-144.585 53.153-2.247 27.84 76.434 28.396 84.392z"/><path fill="#D559A1" stroke="#050505" stroke-width="4" stroke-miterlimit="10" d="M508.314 800.506c-13.997-5.728-37.598-20.464-56.081-39.213-26.866-27.268-27.613-59.677-27.479-68.169.26-16.499 17.606-72.848 73.011-71.832 81.873 1.509 109.401 62.333 109.401 62.333s23.874 44.964 33.436 80.57c9.558 35.619 21.067 57.105 16.349 101.12-1.898 17.719-16 37.159-44.29 44.015-12.945 3.14-33.825.263-49.612-6.41-13.098-5.526-21.131-20.289-21.131-20.289 5.315 2.248 39.098 23.718 66.044 6.42 9.488-6.096 14.543-19.834 15.671-28.353 3.767-28.404-48.053-142.949-86.921-144.585-53.153-2.246-27.843 76.435-28.398 84.393"/><path fill="none" stroke="#231F20" stroke-miterlimit="10" d="M508.314 800.506c-13.997-5.728-37.598-20.464-56.081-39.213-26.866-27.268-27.613-59.677-27.479-68.169.26-16.499 17.606-72.848 73.011-71.832 81.873 1.509 109.401 62.333 109.401 62.333s23.874 44.964 33.436 80.57c9.558 35.619 21.067 57.105 16.349 101.12-1.898 17.719-16 37.159-44.29 44.015-12.945 3.14-33.825.263-49.612-6.41-13.098-5.526-21.131-20.289-21.131-20.289 5.315 2.248 39.098 23.718 66.044 6.42 9.488-6.096 14.543-19.834 15.671-28.353 3.767-28.404-48.053-142.949-86.921-144.585-53.153-2.246-27.843 76.435-28.398 84.393z"/><path fill="#D559A1" stroke="#050505" stroke-width="4" stroke-miterlimit="10" d="M708.91 1012l66.752-56.564c-16.791-18.661-47.015-40.35-46.805-146.761.21-106.412 91.715-179.625 91.715-231.454 0-51.822-44.774-100.139-74.998-126.261-30.225-26.118-36.936-59.557-36.936-59.557s-2.239 33.068-36.94 59.557c-30.223 26.443-75.001 68.949-75.001 126.261 0 57.318 91.792 124.604 91.792 231.444 0 106.841-30.224 128.109-47.014 146.902L708.91 1012"/><path fill="none" stroke="#231F20" stroke-miterlimit="10" d="M708.91 1012l66.752-56.564c-16.791-18.661-47.015-40.35-46.805-146.761.21-106.412 91.715-179.625 91.715-231.454 0-51.822-44.774-100.139-74.998-126.261-30.225-26.118-36.936-59.557-36.936-59.557s-2.239 33.068-36.94 59.557c-30.223 26.443-75.001 68.949-75.001 126.261 0 57.318 91.792 124.604 91.792 231.444 0 106.841-30.224 128.109-47.014 146.902L708.91 1012"/><path fill="#030303" d="M838.486 804.625c0 11.574-10.965 20.958-24.49 20.958H604.96c-13.525 0-24.491-9.384-24.491-20.958 0-11.565 10.966-20.949 24.491-20.949h209.036c13.525 0 24.49 9.384 24.49 20.949"/><path fill="#D559A1" stroke="#050505" stroke-width="4" stroke-miterlimit="10" d="M838.486 804.625c0 11.574-10.965 20.958-24.49 20.958H604.96c-13.525 0-24.491-9.384-24.491-20.958 0-11.565 10.966-20.949 24.491-20.949h209.036c13.525 0 24.49 9.384 24.49 20.949z"/><path fill-rule="evenodd" clip-rule="evenodd" fill="#C4C4C4" d="M549.184 738l87.066 36.5 25.75-6.75 20.341-11.5 14.494-6.75 15.003-7.609 8.34-3.112L734 734.5v-20.833l2.333-28.334L749.5 640l62.5-56.667 7.917-5.75 8-18.333-14.166-7.75-8.876-4.125-22.75-7.25-13.375-1.5-29.25 1.875-14.25 3.5-18.625 6-21.5 11.25-23.5 14.75-21 17.125-19.25 18.293-22.25 25.082-20.375 29.875L566.667 688l-9.167 20.66-7.375 21.59z"/><path fill-rule="evenodd" clip-rule="evenodd" fill="#C6C3C4" d="M740.334 766.667l37.666-14 49.917-19 32.417-23 16.333-26.334v-19.861l-11.333-24.139-19.68-28.915-17.737-15.751-16.583-9.334-26.667-1.666L754 617.581l-10.333 36.625L736.334 687l-2 16L733 718l5 25.667z"/><path fill-rule="evenodd" clip-rule="evenodd" fill="#C4C4C4" d="M567 834.806l23.333 13.899H617L639.667 837 655 816.926 656.582 801 645.9 781.333l-5.233-4-8-6.803 13.233-55.197-47.233 25.334L565.333 759l-16.149 4.667-3.517 8.333.333 21.136 11 23.79z"/><path fill-rule="evenodd" clip-rule="evenodd" fill="#FFF" d="M641.438 629.625l10.312 7.063 11.062-.688 1.626-9.125-1.688-9.813-5.625-6.937-9.687-1-5.688 5.375-1.625 9z"/><g fill-rule="evenodd" clip-rule="evenodd"><path d="M867.209 638.205c-1.771-3.138-16.459-24.309-21.749-29.946-3.56-3.788-20.295-21.092-25.783-26.834 4.051-7.872 8.22-15.63 12.103-23.674-5.663-3.625-23.289-11.755-26.943-13.43-4.717-2.152-11.643-3.87-18.515-5.983-9.372-2.875-24.279-2.489-34.785-1.499-14.009 1.319-28.093 4.834-42.572 10.24-13.664 5.106-24.859 12.684-35.695 19.312-20.557 12.567-39.84 28.982-65.368 56.474L580.6 660.271c-20.333 34.228-23.938 49.566-31.892 70.062-1.322 3.405-2.201 6.535-3.156 9.467-6.643 2.316-13.165 4.707-19.997 6.839-6.965 2.182-13.508 4.168-20.494 6.224-6.853 2.013-14.224 4.011-21.063 5.882-3.636.987-7.425 2.062-10.934 3.228-1.554.521-3.255 1.117-4.857 1.507-1.435.347-5.053 1.109-5.053 1.109 1.036 2.524 7.658 4.598 9.938 5.343 9.039 2.945 18.218 3.493 28.909 4.383 12.877-1.025 27.295-2.709 40.922-5.048.548 12.365 2.903 25.987 6.84 37.884 3.143 9.493 9.941 22.499 15.674 28.891 1.208 1.34 2.909 2.603 4.848 4.255 1.691 1.447 3.351 3.162 5.021 4.384 1.814 1.327 3.789 2.223 6.025 3.51 3.294 1.89 6.939 3.073 10.413 3.478 22.137 2.546 42.367-6.987 48.945-10.144 3.969-2.371 8.381-5.979 11.675-10.168 6.351-8.087 10.226-32.376 4.209-44.728-1.297-2.665-9.877-7.926-8.939-11.045.561-1.899 5.875-2.702 8.939-3.688 3.952-1.271 7.554-2.643 9.782-3.677 2.86-1.33 5.683-3.324 8.635-5.265 11.828-7.799 16.583-10.905 41.039-18.944 2.214-.728 4.545-1.954 6.779-2.832 3.806-1.502 6.693-4.935 11.108-4.01 2.337 3.892 2.384 10.028 2.63 15.788.236 5.514-.176 11.422 0 16.836 7.823-2.201 8.717-3.274 13.154-4.734 7.025-2.313 13.898-4.344 21.047-6.842 10.144-3.545 18.972-5.843 30.246-8.438 3.579-.824 7.188-1.818 10.138-2.556 1.604-.407 3.406-.543 5.917-1.66 10.376-4.643 18.944-8.749 26.835-14.179 2.489-1.715 6.079-4.723 8.354-6.466 4.542-3.472 8.719-7.162 13.224-11.423 5.133-4.866 10.157-9.95 12.625-14.211 4.077-7.061 4.172-18.331 9.468-25.247-4.71-8.243-15.441-27.183-20.345-35.831zM522.123 762.732c-7.798 2.446-16.047 6.428-23.679 7.364-9.127 1.13-19.766-2.132-28.811-3.468 23.2-5.844 45.518-10.682 66.169-18.102 10.193-3.66 19.529-7.872 28.417-13.155 8.694-5.173 17.162-10.769 26.306-14.735 3.147-1.36 14.579 1.113 19.466 1.586 6.432.613 12.393 1.459 18.412 1.573-2.258 2.789-5.907 3.234-8.94 4.209-9.853 3.165-20.553 4.431-30.519 8.421-7.059 2.827-13.393 7.402-20.52 10.528-14.516 6.357-29.857 10.617-46.301 15.779zm116.807-37.358c.613-.083.933.118 1.05.532-2.738 12.86-6.257 24.951-9.992 36.826-9.062 4.619-20.827 6.536-30.521 10.523-.458-2.874 1.642-5.285 2.63-7.894 2.98-7.851 5.461-16.892 11.054-22.623 7.277-7.467 17.843-10.678 25.779-17.364zm2.103 105.759c-9.007 8.487-24.305 14.804-36.832 15.784-14.083 1.105-24.379-6.72-32.623-13.68-16.048-13.562-22.957-36.427-24.199-64.192 14.936-4.538 29.736-9.202 43.146-15.259.449-.091.493.205.526.529-2.322 14.216-7.974 31.026-3.161 47.876 2.765 9.681 12.9 26.102 27.36 23.678 4.517-.758 8.713-5.093 11.576-8.417 2.725-3.162 8.422-13.285 3.922-18.785s-5.25-4.584-13-4.834-16.333 3.417-19.833 1.917c-1.25-3.5-1.59-13.408 1.833-15.833 8.5-2.167 13.5-1.834 21.583-1.334s10 .25 18.333 5.917 10.839 10.856 10.839 10.856c3.161 8.311 2.744 6.474 2.328 13.811s-5.446 15.988-11.798 21.966zm41.039-78.398c-12.954 7.601-24.326 19.09-44.718 17.361 1.543-10.073 5.243-19.698 8.944-28.934 3.678-9.204 8.355-17.774 11.572-26.839 14.202-12.282 28.071-24.896 42.097-37.354 12.475-2.427 21.047 3.463 31.572 4.734-3.335 15.087-3.769 35.762 1.564 48.934-13.733 12.743-35.169 12.801-51.031 22.098zm59.447 9.131a974.0835 974.0835 0 0 0-5.259-54.195c25.287 45.698 26.382-21.952 25.782-47.874-1.657 1.481-25.659 43.928-25.782 42.614 4.094-9.941 42.649-96.748 17.884-96.287-10.31.189-23.774 21.65-26.427 26.006-21.434 35.259-37.714 34.04-74.062 48.189-5.985-13.142-7.564-26.826-4.735-41.049 23.634-.868 17.57-1.469 37.353-13.676-19.801-23.025-31.213-36.014-49.202-7.518-11.168 17.69-36.478 40.422-30.248 64.341 26.216-4.273 13.252-5.106 45.778 8.946-19.275 36.967-34.575 30.532-63.141 11.046-3.068 6.929-39.462 33.917-39.462 32.621 24.226-101.998 167.917-247.43 274.654-175.207-2.981 6.136-5.967 12.277-8.946 18.414-30.113-10.458-34.82-9.959-62.611 17.888-10.256-7.854-46.447-13.842-64.717-17.357-10.57 48.115 40.874 26.044 58.403 24.73 44.787-3.401 44.612-32.558 83.963.947 101.25 86.215-7.201 129.615-89.225 157.421zm-95.221-138.038c-5.727-4.37-1.49-14.833 7.362-10.519 5.542 4.532.947 14.091-7.362 10.519zm12.623 2.104c2.1 1.5 2.006 6.776.523 8.942-2.731.78-6.964.938-8.415-1.051.008-2.797-.332-5.94 1.054-7.364 2.013-.439 4.226-.685 6.838-.527z"/><path d="M820.97 654.529a685.162 685.162 0 0 1-11.05 38.414c-6.413 11.804-9.919 24.432-10.521 37.879 5.021-4.825 49.392-82.211 21.571-76.293z"/><path d="M794.662 589.288c-8.705 3.721-15.543 9.335-20.522 16.835 10.468-2.108 20.99-2.458 31.572-1.051-19.001 13.46-49.925 17.774-28.946 47.878 16.879 24.108 37.1-16.889 58.937-26.83 11.878 39.392 12.537 45.134-4.213 83.136 77.317-27.096-5.734-95.979-36.828-119.968z"/></g><path fill-rule="evenodd" clip-rule="evenodd" fill="#FFF" d="M627.985 723.933c-2.262 2.787-5.911 3.231-8.946 4.209-9.848 3.159-20.549 4.431-30.517 8.418-7.062 2.824-13.389 7.404-20.523 10.521-14.515 6.355-29.86 10.62-46.302 15.785-7.791 2.443-16.04 6.425-23.675 7.363-9.124 1.131-19.591-1.161-27.639-3.021 22.469-7.215 44.346-11.124 64.998-18.548 10.193-3.666 19.527-7.87 28.412-13.155 8.695-5.168 17.166-10.771 26.309-14.73 3.151-1.366 14.579 1.11 19.463 1.581 6.435.613 12.393 1.462 18.42 1.577"/><path fill-rule="evenodd" clip-rule="evenodd" fill="#308E5C" d="M652.25 837.25l-2.75 11.455-3.25 8.545-1.75 8.75v6l2.083 7.501 1.792 3.833 2.042 1.25 1.333-.5h1.5l.917 2.667 3 4 2.166 2.666 3.084 3.084 3.75 3.75 3.247 2.083H672l7.417-3.75 30.711-17.084 5.497-30.125L692 837.25l-20.333-5.249z"/><path fill-rule="evenodd" clip-rule="evenodd" d="M717 850.41c-1.195-.529-45.073-41.908-62.297-19.259 0 0-1.091-6.9-10.536-14.484s-12.251-9.147-12.251-9.147-17.416 6.48-6.851 11.108c3.685.997 6.06 1.56 12.269 7.705 10 9.166 11.927 15.873 11.927 15.873-14.192 36.097 1.288 44.967 1.288 44.967l1.461-1.543c8.029 14.727 19.251 19.026 19.251 19.026l40.576-22.863s6.426-30.819 5.163-31.383zm-52.524-10.869c13.294.074 26.746 1.626 36.306 6.84-10.875 2.391-24.528 2.605-36.828 2.102-.323-3.477.916-5.393.522-8.942zm-13.678 44.195c0-.001-.001-.001-.002-.002v.002c-2.282-2.261-3.661-5.408-4.35-8.854-.583-2.915-.675-6.044-.384-9.037.007-.077.022-.152.03-.229.06-.574.134-1.146.224-1.716.039-.25.086-.498.13-.747.073-.409.15-.817.237-1.225.056-.262.113-.522.174-.783.096-.411.199-.821.308-1.229.062-.234.121-.469.187-.702.163-.576.335-1.149.519-1.72.041-.127.083-.253.125-.379.181-.549.37-1.095.568-1.638.084-.232.172-.462.259-.693.149-.396.301-.791.457-1.184.1-.251.2-.5.302-.749.054-.133.105-.267.16-.398l.007-.002c2.668-6.427 6.061-12.387 7.887-17.646.543 5.36.6 10.631.299 15.743.001.007.013.009.013.016.067 12.649-3.557 23.591-7.054 32.916-.035.084-.065.172-.096.256zm5.784 3.681c1.674-4.637 4.968-7.656 6.844-12.097 3.705 7.168 4.287 17.451 6.841 25.778-4.368-2.656-10.602-7.98-13.685-13.681zm10.495-16.545c-.001-.005-.002-.019-.003-.024-.973-2.437-1.533-5.285-1.542-8.687 1.099.131 2.226.235 3.361.33.489.041.98.081 1.472.119.298.023.596.047.895.069l1.675.129c.234.019.468.038.702.058.387.031.771.064 1.155.099.247.021.493.045.739.068.371.035.738.073 1.105.113.235.025.471.051.705.078.398.047.79.1 1.18.153.189.026.381.05.568.078.575.086 1.143.18 1.697.287.343.213.621.471.871.746 1.355 1.485 1.529 3.747 2.286 5.562.832 1.999 1.791 4.159 2.767 6.418 1.902 4.399 3.873 9.201 5.13 14.11-.27-.202-.545-.397-.821-.593-8.48-5.916-20.791-8.533-23.942-19.113zm17.395-16.604c12.015 3.247 20.027 10.498 24.726 21.053-14.145-1.114-21.136-9.38-24.726-21.053zm19.991-2.626c3.376-1.498 7.544.649 7.369 4.209-.461 9.217-15.797-.47-7.369-4.209z"/><path fill-rule="evenodd" clip-rule="evenodd" d="M637.333 826.333c-6.208-6.146-6.016-6.265-12.269-7.705s6.851-11.108 6.851-11.108"/></svg>